<?xml version="1.0" standalone="no"?>
<!DOCTYPE svg PUBLIC "-//W3C//DTD SVG 20010904//EN"
 "http://www.w3.org/TR/2001/REC-SVG-20010904/DTD/svg10.dtd">
<svg version="1.0" xmlns="http://www.w3.org/2000/svg"
 width="865.000000pt" height="951.000000pt" viewBox="0 0 865.000000 951.000000"
 preserveAspectRatio="xMidYMid meet">

<g transform="translate(0.000000,951.000000) scale(0.100000,-0.100000)"
fill="#ffffff" stroke="none">
<path d="M5370 9370 c-284 -73 -474 -229 -601 -494 -151 -315 -77 -706 183
-966 322 -323 853 -330 1185 -16 186 176 273 377 273 635 0 159 -19 246 -84
376 -113 227 -280 368 -536 450 -116 38 -307 45 -420 15z m370 -269 c88 -30
187 -90 244 -148 48 -49 132 -186 157 -258 9 -27 14 -83 13 -170 -1 -115 -4
-138 -27 -198 -59 -152 -173 -279 -313 -348 -129 -64 -313 -73 -461 -24 -151
51 -262 147 -345 301 l-43 79 -3 168 c-4 191 1 217 69 329 49 80 175 204 244
237 27 14 79 33 115 43 89 25 258 20 350 -11z"/>
<path d="M5385 8837 c-109 -61 -185 -190 -185 -311 0 -98 35 -178 107 -247 87
-85 191 -118 311 -99 150 25 248 122 272 274 12 75 5 173 -16 224 -18 44 -110
139 -159 165 -32 16 -63 21 -155 24 l-115 4 -60 -34z"/>
<path d="M3905 8207 c-541 -269 -1455 -734 -1722 -875 -131 -70 -183 -102
-183 -115 0 -9 67 -87 149 -171 268 -278 359 -440 437 -781 19 -82 41 -156 49
-164 12 -12 25 -8 94 32 68 40 1145 738 1787 1159 257 168 374 255 374 277 0
10 -50 74 -111 141 -192 214 -251 317 -314 546 -39 143 -54 178 -75 182 -9 1
-227 -103 -485 -231z"/>
<path d="M6415 7778 c-11 -7 -59 -45 -108 -85 -142 -118 -250 -180 -432 -247
-55 -21 -108 -44 -119 -51 -18 -13 -18 -16 -2 -57 10 -24 62 -124 116 -223
159 -290 157 -283 113 -474 -21 -89 -27 -143 -27 -231 -1 -149 16 -210 112
-419 41 -90 75 -176 74 -190 -1 -31 -34 -169 -136 -565 -41 -159 -72 -294 -70
-301 3 -7 20 -20 37 -29 86 -44 1511 -424 1543 -412 24 9 15 54 -16 90 -40 45
-120 86 -513 260 -181 80 -349 157 -374 171 -61 36 -69 59 -48 130 22 78 137
327 170 370 35 46 65 61 190 90 197 47 316 118 490 296 l110 111 135 -11 c144
-13 295 -35 348 -52 17 -6 37 -20 43 -32 16 -28 7 -178 -31 -512 -17 -147 -33
-317 -36 -378 -6 -102 -5 -116 15 -159 30 -63 54 -70 79 -23 14 28 214 764
317 1170 93 367 93 375 38 396 -16 6 -190 57 -389 114 -199 58 -383 112 -410
122 -51 19 -64 35 -157 182 -54 85 -187 223 -265 274 -70 46 -140 75 -309 127
-122 38 -112 27 -277 305 -97 165 -163 255 -183 255 -4 0 -17 -6 -28 -12z
m471 -829 c151 -28 301 -146 376 -298 42 -84 43 -89 47 -199 6 -206 -24 -290
-153 -418 -120 -120 -221 -164 -376 -164 -180 0 -266 34 -381 150 -58 59 -87
97 -119 164 -42 83 -44 91 -48 194 -7 184 31 291 151 418 45 48 80 74 141 105
81 40 112 46 282 58 11 0 47 -4 80 -10z"/>
<path d="M6656 6685 c-53 -19 -107 -64 -135 -114 -29 -53 -40 -182 -21 -261
25 -104 112 -169 239 -177 109 -8 173 9 229 60 63 59 83 105 90 204 6 99 -11
154 -67 216 -55 61 -119 87 -216 86 -44 0 -97 -6 -119 -14z"/>
<path d="M1042 7139 c-30 -5 -97 -23 -150 -41 -380 -126 -662 -419 -762 -793
-40 -149 -37 -415 6 -585 71 -279 294 -551 567 -691 190 -97 283 -119 516
-119 237 0 311 15 483 101 139 68 211 120 313 223 137 138 243 317 296 496 34
117 38 359 10 509 -56 292 -222 549 -460 710 -226 154 -565 232 -819 190z
m343 -400 c225 -41 445 -246 532 -494 26 -74 28 -91 28 -230 -1 -136 -3 -157
-28 -231 -49 -146 -151 -276 -292 -369 -143 -95 -184 -108 -370 -113 -195 -5
-246 6 -384 81 -242 132 -381 366 -381 642 0 68 6 127 19 177 65 253 270 464
513 528 84 22 269 27 363 9z"/>
<path d="M1095 6492 c-90 -27 -161 -70 -220 -134 -116 -125 -161 -294 -120
-453 50 -189 198 -327 385 -356 122 -19 183 -9 291 47 167 86 238 185 260 365
15 120 8 167 -40 265 -50 102 -97 155 -179 203 -122 72 -267 96 -377 63z"/>
<path d="M2576 5673 c-7 -16 -30 -71 -50 -123 -78 -201 -181 -357 -341 -515
-148 -147 -313 -250 -535 -335 -104 -39 -115 -53 -86 -108 13 -25 417 -514
874 -1057 211 -251 241 -278 270 -242 5 6 31 73 57 147 133 379 331 642 640
850 129 87 170 107 344 169 221 80 228 85 179 145 -61 74 -1079 929 -1267
1064 -54 39 -67 40 -85 5z"/>
<path d="M4030 4268 c-94 -13 -261 -71 -367 -128 -315 -168 -570 -485 -665
-827 -20 -70 -22 -103 -22 -328 -1 -210 2 -260 17 -313 88 -312 257 -563 502
-745 86 -63 300 -172 405 -206 89 -28 208 -41 377 -41 183 0 276 13 393 57
219 82 356 168 506 317 194 193 327 436 369 673 20 117 20 381 0 499 -51 291
-223 574 -469 773 -189 152 -406 245 -637 271 -102 12 -320 11 -409 -2z m426
-488 c281 -72 504 -284 594 -565 34 -107 39 -311 11 -425 -49 -197 -166 -371
-326 -484 -78 -56 -121 -78 -225 -112 -78 -26 -98 -28 -240 -28 -173 -1 -234
12 -371 79 -262 128 -438 398 -456 705 -16 269 133 560 368 716 199 132 420
171 645 114z"/>
<path d="M4137 3540 c-27 -5 -83 -25 -124 -44 -110 -53 -195 -141 -259 -270
-43 -88 -49 -108 -52 -175 -6 -131 13 -257 50 -331 57 -111 216 -248 337 -289
49 -16 297 -14 355 3 104 32 226 132 307 254 62 94 72 141 68 322 -4 140 -5
148 -36 211 -64 129 -199 249 -335 296 -77 27 -229 38 -311 23z"/>
<path d="M2892 1998 c-69 -126 -290 -593 -367 -774 l-42 -101 21 -14 c18 -12
257 -14 1571 -17 1488 -3 1934 3 1955 24 12 12 -32 123 -133 340 -79 171 -257
524 -289 577 l-24 38 -35 -28 c-20 -15 -98 -88 -176 -161 -77 -73 -171 -157
-210 -186 -145 -109 -390 -211 -618 -257 -148 -30 -384 -32 -535 -5 -227 40
-495 151 -648 266 -45 33 -154 130 -244 215 -90 85 -168 155 -175 155 -6 0
-29 -33 -51 -72z"/>
<path d="M1710 813 c-52 -2 -105 -5 -117 -8 l-23 -5 0 -340 0 -340 2695 0
2695 0 -2 348 -3 347 -2575 0 c-1416 1 -2618 0 -2670 -2z"/>
</g>
</svg>
