<?xml version="1.0" standalone="no"?>
<!DOCTYPE svg PUBLIC "-//W3C//DTD SVG 20010904//EN"
 "http://www.w3.org/TR/2001/REC-SVG-20010904/DTD/svg10.dtd">
<svg version="1.0" xmlns="http://www.w3.org/2000/svg"
 width="932.000000pt" height="1037.000000pt" viewBox="0 0 932.000000 1037.000000"
 preserveAspectRatio="xMidYMid meet">

<g transform="translate(0.000000,1037.000000) scale(0.100000,-0.100000)"
fill="#ffffff" stroke="none">
<path d="M4455 10364 c-630 -48 -1217 -278 -1696 -665 -571 -461 -964 -1131
-1083 -1844 -39 -235 -41 -283 -41 -1085 0 -729 1 -790 18 -849 51 -179 174
-326 335 -397 l52 -24 0 -154 c0 -185 9 -234 62 -346 32 -67 57 -101 117 -161
130 -130 262 -178 483 -179 l118 0 41 -82 c82 -164 197 -330 336 -486 l47 -54
-171 -343 -172 -343 -473 -157 c-260 -87 -525 -178 -588 -202 -758 -291 -1388
-974 -1664 -1805 -98 -295 -156 -626 -156 -894 0 -81 3 -98 28 -145 22 -43 38
-59 81 -81 l53 -28 4477 0 c4308 0 4478 1 4516 19 51 23 101 79 116 131 26 87
-23 530 -86 780 -203 801 -742 1515 -1423 1883 -176 95 -321 151 -850 328
l-513 171 -170 339 c-93 186 -169 343 -169 349 0 5 21 33 48 62 228 253 398
557 491 881 16 58 44 191 62 296 l32 189 246 4 c229 4 251 5 316 28 145 50
278 168 346 305 64 130 62 109 66 805 5 681 -4 941 -38 1175 -74 511 -269 972
-592 1400 -127 168 -404 442 -577 571 -435 325 -889 511 -1435 589 -105 15
-482 27 -590 19z m400 -404 c363 -33 645 -110 950 -260 308 -152 550 -332 783
-583 269 -291 475 -657 588 -1041 37 -128 78 -335 90 -453 l7 -73 -196 0 -196
0 -5 53 c-3 28 -8 84 -12 122 -43 487 -294 983 -666 1315 -313 280 -725 465
-1130 509 -54 6 -237 11 -408 11 -339 0 -446 -8 -618 -46 -884 -196 -1535
-956 -1598 -1864 l-7 -100 -193 0 -194 0 0 46 c0 115 54 375 121 579 64 195
190 451 307 626 247 366 548 639 948 858 417 228 962 343 1429 301z m165 -811
c193 -24 350 -69 520 -150 463 -221 797 -649 899 -1155 41 -198 48 -494 13
-494 -52 0 -439 67 -556 97 -531 133 -1022 402 -1431 783 -55 51 -114 99 -132
106 -73 31 -336 8 -541 -46 -312 -84 -575 -235 -812 -467 -68 -68 -125 -123
-125 -123 -1 0 2 28 7 63 28 213 124 464 252 656 273 410 701 674 1183 730
103 12 627 12 723 0z m-742 -1292 c383 -335 784 -564 1257 -722 225 -75 435
-123 714 -164 112 -16 205 -32 208 -35 14 -13 -41 -670 -83 -996 -31 -244
-107 -705 -134 -810 -122 -477 -462 -905 -885 -1115 -235 -117 -437 -165 -693
-165 -537 0 -1000 249 -1324 713 -31 45 -57 85 -58 90 0 4 91 7 203 7 l202 -1
35 -72 c51 -106 158 -211 270 -266 47 -22 110 -45 139 -51 88 -17 594 -13 670
5 271 64 461 304 461 582 0 114 -19 193 -68 287 -71 136 -197 243 -347 294
l-80 27 -305 0 c-268 0 -312 -2 -365 -18 -161 -50 -300 -162 -370 -299 l-40
-78 -297 0 -296 0 -21 88 c-51 215 -119 687 -161 1112 -26 267 -50 596 -50
688 l0 73 164 217 c234 311 365 430 596 547 151 76 335 130 500 148 19 2 39 5
43 5 4 1 56 -40 115 -91z m-1820 -964 c17 -336 67 -912 87 -1001 l6 -23 -183
3 c-210 3 -240 12 -293 87 l-30 43 -3 569 -2 569 203 0 203 0 12 -247z m4820
-322 l-3 -569 -30 -43 c-53 -75 -83 -84 -293 -87 l-183 -3 6 23 c20 89 70 665
87 1001 l12 247 203 0 203 0 -2 -569z m-4649 -1238 c13 -76 29 -166 36 -200
l13 -63 -45 0 c-58 0 -102 19 -140 63 -43 49 -53 91 -53 225 l0 112 83 0 84 0
22 -137z m2148 -309 c57 -45 85 -106 81 -176 -5 -76 -40 -127 -109 -162 -53
-26 -55 -26 -283 -26 -128 0 -248 5 -268 10 -82 23 -139 104 -140 196 -1 72
38 138 102 171 44 24 47 24 312 21 l266 -3 39 -31z m1138 -1574 c74 -148 135
-276 135 -283 0 -18 -102 -287 -179 -472 -66 -159 -260 -565 -270 -565 -3 0
-159 153 -345 339 l-339 339 235 249 c129 136 322 341 429 455 107 114 195
207 196 207 2 1 64 -120 138 -269z m-1567 -652 c-4 -9 -619 -662 -628 -666 -9
-3 -138 257 -218 439 -95 213 -232 568 -232 598 0 5 53 116 117 246 l117 236
423 -423 c233 -233 422 -426 421 -430z m49 666 c92 -13 162 -15 323 -11 113 4
218 9 235 13 l30 7 -43 -49 c-23 -27 -102 -112 -176 -189 l-135 -140 -190 190
c-105 104 -191 194 -191 198 0 5 7 7 15 3 8 -3 68 -13 132 -22z m-1411 -701
c208 -538 459 -1027 782 -1518 68 -104 159 -237 202 -295 67 -92 304 -462 317
-497 4 -11 -349 -13 -1927 -13 l-1931 0 6 57 c43 384 165 756 355 1077 170
288 391 539 640 730 263 200 398 263 1000 465 261 88 479 158 484 157 6 -1 38
-74 72 -163z m3899 7 c520 -174 650 -228 845 -355 480 -310 848 -798 1033
-1370 59 -181 83 -293 121 -562 l6 -43 -1931 0 c-1577 0 -1930 2 -1926 13 14
37 253 410 337 527 369 511 702 1121 935 1711 97 246 94 239 98 239 1 0 219
-72 482 -160z m-1863 -637 l376 -376 -64 -103 c-86 -141 -246 -378 -346 -517
-46 -63 -137 -202 -203 -310 -66 -108 -122 -196 -125 -196 -3 -1 -66 97 -140
216 -74 120 -161 253 -193 296 -116 157 -389 571 -399 605 -3 9 701 762 711
762 3 0 175 -169 383 -377z"/>
<path d="M6795 2362 c-73 -35 -115 -103 -115 -187 0 -139 147 -234 278 -180
144 61 164 257 35 348 -54 38 -140 46 -198 19z"/>
<path d="M7492 1969 c-62 -31 -95 -86 -100 -165 -4 -54 -1 -70 21 -107 15 -24
57 -70 96 -101 146 -119 258 -254 373 -449 80 -134 117 -167 197 -175 124 -12
220 77 221 203 0 40 -9 66 -46 135 -126 234 -329 475 -532 633 -50 38 -61 42
-121 45 -53 2 -75 -1 -109 -19z"/>
</g>
</svg>
