<?xml version="1.0" standalone="no"?>
<!DOCTYPE svg PUBLIC "-//W3C//DTD SVG 20010904//EN"
 "http://www.w3.org/TR/2001/REC-SVG-20010904/DTD/svg10.dtd">
<svg version="1.0" xmlns="http://www.w3.org/2000/svg"
 width="400.000000pt" height="400.000000pt" viewBox="0 0 400.000000 400.000000"
 preserveAspectRatio="xMidYMid meet">

<g transform="translate(-60.000000, 450.000000) scale(0.100000, -0.100000)"
fill="#ffffff" stroke="none">
<path d="M1865 4008 c-3 -7 -4 -112 -3 -233 l3 -220 25 0 25 0 0 230 0 230
-23 3 c-12 2 -24 -3 -27 -10z"/>
<path d="M926 3576 c-45 -17 -84 -44 -100 -69 -8 -12 -7 -21 5 -33 15 -15 20
-13 58 14 80 58 149 50 236 -26 68 -60 157 -78 231 -47 20 8 56 33 81 55 87
76 160 75 253 -4 105 -90 212 -89 317 4 87 76 160 75 253 -4 105 -90 212 -89
317 4 87 76 160 75 253 -4 105 -90 212 -89 317 4 87 76 160 75 253 -4 105 -90
212 -89 317 4 87 76 160 75 253 -4 78 -67 166 -84 245 -47 50 23 90 65 82 85
-9 23 -34 20 -71 -9 -67 -51 -141 -45 -212 16 -68 59 -101 73 -169 73 -68 0
-107 -17 -174 -75 -74 -65 -150 -65 -227 2 -68 59 -101 73 -169 73 -68 0 -107
-17 -174 -75 -74 -65 -150 -65 -227 2 -68 59 -101 73 -169 73 -68 0 -107 -17
-174 -75 -74 -65 -150 -65 -227 2 -68 59 -101 73 -169 73 -68 0 -107 -17 -174
-75 -74 -65 -150 -65 -227 2 -68 59 -101 73 -169 73 -68 0 -107 -17 -174 -75
-74 -65 -150 -65 -227 2 -25 21 -59 46 -75 55 -44 22 -117 27 -163 10z"/>
<path d="M1865 3318 c-3 -7 -6 -74 -7 -148 l-3 -135 -290 -5 -290 -5 -46 -27
c-38 -22 -54 -41 -81 -95 l-34 -68 -61 -7 c-103 -11 -172 -59 -212 -148 -19
-42 -21 -65 -21 -366 0 -220 4 -332 12 -355 22 -64 361 -664 397 -703 73 -78
48 -76 661 -76 506 0 548 2 585 19 57 26 101 79 174 211 35 63 86 154 113 202
l49 88 159 -137 c135 -115 161 -142 166 -171 8 -39 54 -96 95 -118 55 -28 163
-12 198 29 12 15 38 17 189 17 l175 0 73 -70 72 -70 109 0 109 0 73 74 c74 75
88 108 46 114 -13 2 -41 -19 -85 -63 l-64 -65 -63 0 -63 0 0 195 0 195 63 0
63 0 64 -65 c44 -44 72 -65 85 -63 42 6 28 38 -47 114 l-74 74 -105 0 -105 0
-69 -70 -69 -70 -179 0 c-178 0 -178 0 -213 27 -26 19 -51 28 -92 31 -57 5
-58 6 -222 145 -91 77 -167 142 -169 144 -3 2 1 20 9 41 7 20 16 62 19 93 l6
56 154 132 c113 97 158 130 172 126 27 -9 94 12 127 40 29 25 33 25 204 25
l174 0 69 -70 69 -70 111 0 111 0 72 73 c72 72 86 100 56 111 -22 8 -41 -4
-104 -68 l-54 -56 -63 0 -63 0 2 193 3 192 60 3 60 3 65 -66 c64 -65 95 -79
107 -49 4 11 -19 40 -73 95 l-79 79 -100 0 -101 0 -69 -70 -69 -70 -183 0
c-122 0 -184 4 -189 11 -3 6 -25 20 -48 30 -103 47 -214 -3 -246 -109 -8 -26
-37 -61 -93 -114 l-82 -77 -5 137 c-4 106 -10 145 -24 172 -43 82 -111 127
-209 138 l-61 7 -34 68 c-27 54 -43 73 -81 95 l-46 27 -290 5 -290 5 -5 145
c-5 141 -6 145 -28 148 -12 2 -24 -3 -27 -10z m662 -374 c32 -24 64 -80 56
-100 -7 -20 -1378 -21 -1386 -1 -7 18 16 68 41 90 11 10 33 22 48 27 16 5 295
8 621 7 581 -2 592 -2 620 -23z m285 -203 c19 -13 46 -40 59 -59 l24 -36 0
-335 0 -336 -183 -330 c-101 -181 -191 -338 -200 -349 -10 -10 -34 -27 -54
-37 -35 -18 -67 -19 -568 -19 -501 0 -533 1 -568 19 -20 10 -44 27 -54 37 -9
11 -99 168 -200 349 l-183 330 -3 324 c-3 312 -2 325 18 367 23 46 62 80 108
94 15 5 419 8 898 7 l870 -2 36 -24z m1128 -218 l0 -167 -45 44 -45 44 0 80 0
80 42 43 c23 24 43 43 45 43 2 0 3 -75 3 -167z m-150 2 l0 -55 -153 0 -153 0
0 55 0 55 153 0 153 0 0 -55z m-640 -83 c0 -5 13 -21 29 -38 l29 -29 -122
-104 -121 -104 -3 64 -3 64 83 77 c76 71 108 91 108 70z m-82 -741 c72 -62
132 -116 132 -120 0 -4 -9 -16 -20 -26 -11 -10 -22 -26 -26 -37 -3 -10 -10
-18 -14 -16 -5 2 -74 59 -154 127 l-145 125 26 48 c26 48 27 48 47 30 12 -10
81 -69 154 -131z m872 -268 l0 -167 -45 44 -45 44 0 80 0 80 42 43 c23 24 43
43 45 43 2 0 3 -75 3 -167z m-150 2 l0 -55 -153 0 -153 0 0 55 0 55 153 0 153
0 0 -55z"/>
<path d="M1247 2603 c-13 -12 -7 -41 9 -47 9 -3 100 -6 204 -6 154 0 190 3
200 15 7 8 10 22 6 30 -4 13 -36 15 -209 15 -112 0 -207 -3 -210 -7z"/>
<path d="M2117 2603 c-13 -12 -7 -41 9 -47 9 -3 100 -6 204 -6 154 0 190 3
200 15 7 8 10 22 6 30 -4 13 -36 15 -209 15 -112 0 -207 -3 -210 -7z"/>
<path d="M1235 2383 c-32 -9 -65 -34 -81 -64 -10 -21 -14 -66 -14 -174 0 -125
3 -151 20 -184 39 -77 -26 -71 730 -71 756 0 691 -6 730 71 17 33 20 59 20
184 0 159 -7 188 -55 219 -34 22 -125 32 -153 17 -13 -7 -26 -29 -32 -54 -19
-72 -55 -123 -103 -146 -42 -20 -58 -21 -407 -21 -349 0 -365 1 -407 21 -48
23 -84 74 -103 146 -6 24 -19 47 -30 53 -19 10 -79 12 -115 3z"/>
<path d="M1462 2348 c-28 -28 -4 -86 48 -113 43 -22 717 -22 760 0 56 29 79
94 41 115 -30 15 -833 14 -849 -2z"/>
<path d="M1254 1816 c-3 -8 34 -85 82 -171 63 -114 95 -162 118 -176 29 -18
56 -19 436 -19 380 0 407 1 436 19 23 14 55 62 118 176 48 86 85 163 82 171
-8 21 -1264 21 -1272 0z"/>
</g>
</svg>
